<svg width="915" height="153" viewBox="0 0 915 153" fill="none" xmlns="http://www.w3.org/2000/svg">
<path d="M227.501 67.6084C227.426 67.6494 227.351 67.6903 227.277 67.7313C215.246 74.3735 205.423 84.4893 199.576 96.925C191.334 114.452 173.52 126.585 152.865 126.585C148.131 126.585 143.543 125.947 139.185 124.752C126.905 121.385 113.897 121.708 102.032 126.332C101.104 126.692 100.182 127.051 99.2616 127.405C112.88 141.345 131.885 150 152.865 150C194.222 150 227.86 116.35 227.86 74.9921C227.86 72.5044 227.732 70.0286 227.501 67.6057V67.6084ZM101.466 79.4056C101.338 77.9569 101.275 76.4818 101.275 74.9947C101.275 73.3015 101.351 71.6347 101.518 69.9811C104.044 43.8461 126.063 23.4041 152.865 23.4041C163.688 23.4041 173.73 26.7378 182.027 32.4321C184.63 34.2272 187.067 36.2535 189.299 38.4729C196.852 46.0138 202.085 55.8746 203.828 66.9158C204.476 66.5523 205.119 66.1888 205.758 65.8266C218.149 58.8011 221.93 42.5044 213.549 30.9874C213.497 30.9173 213.446 30.8473 213.395 30.7772C211.279 27.8785 208.958 25.1476 206.457 22.5952C192.837 8.65659 173.845 0 152.865 0C111.508 0 77.8574 33.6495 77.8574 74.9947C77.8574 77.4824 77.9856 79.9581 78.217 82.381C78.5765 85.9975 79.1911 89.5493 80.0503 92.9992C80.0715 93.0851 80.0926 93.1724 80.1151 93.2583C83.5677 107.059 98.4738 114.595 111.804 109.63C112.505 109.369 113.211 109.104 113.919 108.837C106.943 100.822 102.404 90.6279 101.468 79.4056H101.466Z" fill="white"/>
<path d="M305.361 3.8994C300.822 -5.82126 254.232 5.84908 193.267 30.5856L196.678 33.2398C229.315 22.4168 253.219 19.3131 256.425 26.1866C261.208 36.4452 217.991 65.056 160.681 91.7805C103.371 118.505 53.6788 133.214 48.8951 122.956C45.625 115.954 64.1172 99.1417 94.3948 80.6746L93.6387 76.9947C35.0583 107.953 -4.18381 136.358 0.356632 146.117C6.08936 158.402 79.0062 136.524 163.234 97.2449C247.461 57.9776 311.094 16.1844 305.361 3.8994Z" fill="white"/>
<path d="M355.96 32.6H400.248C419.704 32.6 428.024 44.632 428.024 58.456C428.024 71.512 420.472 85.592 400.248 85.592H373.368C371.96 85.592 371.192 86.232 371.192 87.768V119H356.088V84.824C356.088 75.096 360.184 71.128 369.656 71.128H400.76C409.336 71.128 412.792 65.24 412.792 59.224C412.792 52.952 409.08 47.704 400.888 47.704H355.96V32.6ZM442.835 32.6H489.683C509.139 32.6 517.459 44.632 517.459 58.456C517.459 69.208 512.339 80.728 499.155 84.44L519.251 119H502.483L482.771 85.592H460.243C458.835 85.592 458.067 86.232 458.067 87.768V119H442.963V84.824C442.963 75.096 447.059 71.128 456.531 71.128H490.195C498.771 71.128 502.227 65.24 502.227 59.096C502.227 52.952 498.515 47.704 490.195 47.704H442.835V32.6ZM560.194 32.6H603.458V47.704H560.194C551.106 47.704 547.138 51.928 547.138 58.584C547.138 65.624 551.618 68.824 560.322 68.824H602.818V82.52H559.938C551.234 82.52 546.754 85.976 546.754 93.016C546.754 99.8 550.978 103.896 559.81 103.896H603.586V119H559.81C539.33 119 531.01 108.888 531.01 95.448C531.01 85.592 535.49 78.936 543.426 75.608C535.362 72.28 531.266 65.624 531.266 56.152C531.266 42.328 539.842 32.6 560.194 32.6ZM616.432 71.896H662.128V84.952H616.432V71.896ZM665.807 32.6H731.471V47.704H706.255V119H691.023V47.704H665.807V32.6ZM779.056 32.6H814.64V47.704H779.056C762.416 47.704 755.12 56.024 755.12 75.864C755.12 95.576 762.288 103.896 779.056 103.896H793.392C801.84 103.896 805.424 98.776 805.424 91.736C805.424 84.824 801.84 80.728 794.8 80.728H775.6V67.544H796.336C811.696 67.544 819.248 77.016 819.248 91.992C819.248 107.096 811.696 119 792.368 119H779.056C753.84 119 740.016 104.792 740.016 75.864C740.016 46.808 753.968 32.6 779.056 32.6ZM862.194 32.6H905.458V47.704H862.194C853.106 47.704 849.138 51.928 849.138 58.584C849.138 65.624 853.618 68.824 862.322 68.824H904.818V82.52H861.938C853.234 82.52 848.754 85.976 848.754 93.016C848.754 99.8 852.978 103.896 861.81 103.896H905.586V119H861.81C841.33 119 833.01 108.888 833.01 95.448C833.01 85.592 837.49 78.936 845.426 75.608C837.362 72.28 833.266 65.624 833.266 56.152C833.266 42.328 841.842 32.6 862.194 32.6Z" fill="white"/>
</svg>
